<?xml version="1.0" encoding="UTF-8" standalone="no"?>
<!DOCTYPE svg PUBLIC "-//W3C//DTD SVG 1.1//EN" "http://www.w3.org/Graphics/SVG/1.1/DTD/svg11.dtd">
<svg width="100%" height="100%" viewBox="0 0 960 300" version="1.1" xmlns="http://www.w3.org/2000/svg" xmlns:xlink="http://www.w3.org/1999/xlink" xml:space="preserve" xmlns:serif="http://www.serif.com/" style="fill-rule:evenodd;clip-rule:evenodd;stroke-linecap:square;stroke-miterlimit:1.5;">
    <g transform="matrix(0.24,0,0,0.24,92.7102,-748.161)">
        <g transform="matrix(10.249,0,0,2.68915,-13066.3,-815.467)">
            <path d="M1627.47,1927.3L1627.47,1462.47L1593.66,1462.47L1593.66,1548.76L1244.29,1548.76L1244.29,1927.3L1627.47,1927.3Z" style="fill:rgb(189,189,189);"/>
        </g>
        <g transform="matrix(-8.82429,1.08066e-15,-1.64272e-16,-1.34139,14730.7,6444.82)">
            <path d="M1627.47,1548.76L1259.82,1548.76L1259.82,2480.63L1278.84,2480.63L1278.84,1916.41L1627.47,1916.41L1627.47,1548.76Z" style="fill:rgb(33,33,33);"/>
        </g>
        <g transform="matrix(10.2476,0,0,2.76866,-13296.4,-1170.64)">
            <path d="M1627.47,1548.76L1259.82,1548.76L1259.82,2000.24L1274.73,2000.24L1274.73,1916.41L1627.47,1916.41L1627.47,1548.76Z" style="fill:rgb(224,224,224);"/>
        </g>
        <g transform="matrix(-8.11262,9.9351e-16,-7.73112e-17,-0.631294,14062.6,5359.54)">
            <path d="M1655.63,1571.69L1287.98,1571.69L1287.98,3551.75L1297.71,3551.75L1297.71,1939.34L1655.63,1939.34L1655.63,1571.69Z" style="fill:rgb(7,7,7);"/>
        </g>
    </g>
    <g>
        <g transform="matrix(2.15735e-17,0.352322,-0.434969,2.66341e-17,1085.78,-104.849)">
            <path d="M633.452,482.582L633.452,2302.82" style="fill:none;stroke:rgb(119,119,119);stroke-width:17.69px;"/>
        </g>
        <g transform="matrix(2.15735e-17,0.352322,-0.434969,2.66341e-17,1085.78,-43.5822)">
            <path d="M605.782,482.582L605.782,2302.82" style="fill:none;stroke:rgb(119,119,119);stroke-width:17.69px;"/>
        </g>
        <g transform="matrix(2.15735e-17,0.352322,-0.434969,2.66341e-17,1085.78,-151.926)">
            <path d="M711.069,482.582L711.069,2302.82" style="fill:none;stroke:rgb(119,119,119);stroke-width:17.69px;"/>
        </g>
        <g transform="matrix(2.15735e-17,0.352322,-0.434969,2.66341e-17,1085.78,-90.6595)">
            <path d="M683.398,482.582L683.398,2302.82" style="fill:none;stroke:rgb(119,119,119);stroke-width:17.69px;"/>
        </g>
        <g transform="matrix(-0.352322,2.44086e-17,-5.32683e-17,-0.246065,645.045,600.798)">
            <path d="M751.41,1635.34L751.41,2126.27" style="fill:none;stroke:rgb(119,119,119);stroke-width:23.04px;"/>
        </g>
        <g transform="matrix(2.15735e-17,0.352322,-0.434969,2.66341e-17,1005.98,-63.3375)">
            <path d="M400.025,292.218L751.41,292.219L751.409,2126.26L400.018,2126.26" style="fill:none;stroke:rgb(119,119,119);stroke-width:17.69px;"/>
        </g>
        <g transform="matrix(-0.352322,2.44086e-17,-5.32683e-17,-0.246065,564.506,600.798)">
            <path d="M751.41,1635.34L751.41,2126.27" style="fill:none;stroke:rgb(119,119,119);stroke-width:23.04px;"/>
        </g>
        <g transform="matrix(0.352322,2.86404e-18,5.06326e-18,0.246065,133.224,-321.798)">
            <path d="M751.41,1623.14L751.41,2114.07" style="fill:none;stroke:rgb(119,119,119);stroke-width:23.04px;"/>
        </g>
        <g transform="matrix(0.352322,2.86404e-18,5.06326e-18,0.246065,213.762,-321.798)">
            <path d="M751.41,1623.14L751.41,2114.07" style="fill:none;stroke:rgb(119,119,119);stroke-width:23.04px;"/>
        </g>
        <g transform="matrix(0.352322,2.86404e-18,5.06326e-18,0.246065,311.956,-321.798)">
            <path d="M751.41,1623.14L751.41,2114.07" style="fill:none;stroke:rgb(119,119,119);stroke-width:23.04px;"/>
        </g>
        <g transform="matrix(0.352322,2.86404e-18,5.06326e-18,0.246065,231.418,-321.798)">
            <path d="M751.41,1623.14L751.41,2114.07" style="fill:none;stroke:rgb(119,119,119);stroke-width:23.04px;"/>
        </g>
        <g transform="matrix(0.352322,2.86404e-18,5.06326e-18,0.246065,329.612,-321.798)">
            <path d="M751.41,1623.14L751.41,2114.07" style="fill:none;stroke:rgb(119,119,119);stroke-width:23.04px;"/>
        </g>
        <g transform="matrix(0.352322,2.86404e-18,5.06326e-18,0.246065,412.683,-321.798)">
            <path d="M751.41,1623.14L751.41,2114.07" style="fill:none;stroke:rgb(119,119,119);stroke-width:23.04px;"/>
        </g>
        <g transform="matrix(0.352322,2.86404e-18,5.06326e-18,0.246065,430.339,-321.798)">
            <path d="M751.41,1623.14L751.41,2114.07" style="fill:none;stroke:rgb(119,119,119);stroke-width:23.04px;"/>
        </g>
        <g transform="matrix(0.352322,2.86404e-18,5.06326e-18,0.246065,513.409,-321.798)">
            <path d="M751.41,1623.14L751.41,2114.07" style="fill:none;stroke:rgb(119,119,119);stroke-width:23.04px;"/>
        </g>
        <g transform="matrix(0.352322,2.86404e-18,5.06326e-18,0.246065,531.065,-321.798)">
            <path d="M751.41,1623.14L751.41,2114.07" style="fill:none;stroke:rgb(119,119,119);stroke-width:23.04px;"/>
        </g>
        <g transform="matrix(0.352322,5.06326e-18,5.06326e-18,0.435011,-62.2335,-723.549)">
            <path d="M748.795,1841.67L748.795,2119.37" style="fill:none;stroke:rgb(119,119,119);stroke-width:17.68px;"/>
        </g>
        <g transform="matrix(0.352322,5.06326e-18,5.06326e-18,0.435011,18.2947,-723.549)">
            <path d="M748.795,1841.67L748.795,2119.37" style="fill:none;stroke:rgb(119,119,119);stroke-width:17.68px;"/>
        </g>
    </g>
    <g transform="matrix(0.830988,0,0,0.830988,81.1256,25.3518)">
        <g transform="matrix(0.199144,0,0,0.199144,562.142,-59.0998)">
            <path d="M1880.09,1168.52L1554.77,1168.52C1522.26,1168.52 1495.86,1142.12 1495.86,1109.61L1495.86,917.531C1495.86,885.017 1522.26,858.62 1554.77,858.62L1997.84,858.62L1997.84,976.372L1613.61,976.372L1613.61,1050.7L1938.93,1050.7C1971.44,1050.7 1997.84,1077.1 1997.84,1109.61L1997.84,1301.69C1997.84,1334.2 1971.44,1360.6 1938.93,1360.6L1495.86,1360.6L1495.86,1242.85L1880.09,1242.85L1880.09,1168.52Z" style="stroke:black;stroke-width:29.17px;stroke-linecap:round;stroke-linejoin:round;"/>
        </g>
        <g transform="matrix(1.21941e-17,0.199144,0.199144,-1.21941e-17,446.619,-186.003)">
            <path d="M1880.09,1168.52L1554.77,1168.52C1522.26,1168.52 1495.86,1142.12 1495.86,1109.61L1495.86,917.531C1495.86,885.017 1522.26,858.62 1554.77,858.62L1997.84,858.62L1997.84,976.372L1613.61,976.372L1613.61,1050.7L1938.93,1050.7C1971.44,1050.7 1997.84,1077.1 1997.84,1109.61L1997.84,1301.69C1997.84,1334.2 1971.44,1360.6 1938.93,1360.6L1495.86,1360.6L1495.86,1242.85L1880.09,1242.85L1880.09,1168.52Z" style="stroke:black;stroke-width:29.17px;stroke-linecap:round;stroke-linejoin:round;"/>
        </g>
        <g transform="matrix(0.199144,0,0,0.199144,-812.532,4.02793)">
            <path d="M4080.12,1043.6L4197.67,1043.6L4197.67,849.724C4197.88,817.385 4224.2,791.194 4256.58,791.194L4701.01,791.194L4701.07,732.317L4701.01,673.441L4197.67,673.441L4197.67,598.674C4197.88,566.336 4224.2,540.144 4256.58,540.144L4701.27,540.144L4701.33,481.268L4701.27,422.392L4139.03,422.392C4106.52,422.392 4080.12,448.789 4080.12,481.303L4080.12,1043.6Z" style="stroke:black;stroke-width:29.17px;stroke-linecap:round;stroke-linejoin:round;"/>
        </g>
        <g transform="matrix(0.199144,0,0,0.199144,217.79,-261.406)">
            <path d="M3059.8,2066.52C3060.31,2066.52 3060.81,2066.53 3061.32,2066.55L3061.69,2066.56C3061.82,2066.57 3061.94,2066.57 3062.07,2066.58L3062.45,2066.59C3063.44,2066.64 3064.42,2066.72 3065.39,2066.82C3069.12,2067.19 3072.75,2067.92 3076.23,2068.96C3076.58,2069.06 3076.93,2069.17 3077.27,2069.28L3077.62,2069.39C3078.03,2069.52 3078.43,2069.66 3078.83,2069.8L3078.99,2069.85L3079.15,2069.91C3079.36,2069.99 3079.58,2070.06 3079.8,2070.14L3080,2070.22L3080.16,2070.28C3080.56,2070.43 3080.95,2070.58 3081.34,2070.74C3082.35,2071.14 3083.35,2071.58 3084.33,2072.04L3084.63,2072.18L3084.84,2072.28C3085.97,2072.82 3087.08,2073.4 3088.17,2074.01L3088.42,2074.15L3088.7,2074.31C3088.84,2074.39 3088.98,2074.47 3089.13,2074.56C3089.51,2074.78 3089.88,2075.01 3090.26,2075.24L3090.56,2075.42C3090.74,2075.53 3090.91,2075.65 3091.09,2075.76C3092.19,2076.46 3093.26,2077.2 3094.32,2077.98C3095.52,2078.87 3096.7,2079.8 3097.83,2080.78L3097.96,2080.89L3098.08,2080.99C3098.47,2081.33 3098.86,2081.68 3099.24,2082.03C3099.4,2082.18 3099.56,2082.32 3099.72,2082.47L3099.8,2082.55C3099.88,2082.63 3099.97,2082.71 3100.05,2082.79L3100.25,2082.98C3100.4,2083.12 3100.55,2083.27 3100.7,2083.42L3100.82,2083.53L3101.07,2083.78C3101.2,2083.92 3101.34,2084.05 3101.47,2084.19C3101.88,2084.61 3102.28,2085.03 3102.68,2085.46C3103.91,2086.79 3105.08,2088.18 3106.19,2089.63L3106.41,2089.91C3106.6,2090.16 3106.79,2090.42 3106.98,2090.68C3108.26,2092.42 3109.44,2094.24 3110.52,2096.12L3110.7,2096.42C3111.04,2097.03 3111.38,2097.65 3111.7,2098.27L3111.72,2098.3L3111.73,2098.32C3111.94,2098.74 3112.15,2099.15 3112.36,2099.57C3113.09,2101.07 3113.76,2102.6 3114.37,2104.17C3114.54,2104.61 3114.7,2105.04 3114.86,2105.48L3114.87,2105.52C3114.91,2105.63 3114.95,2105.75 3114.99,2105.86L3115.1,2106.17C3115.34,2106.85 3115.56,2107.53 3115.77,2108.21C3115.87,2108.55 3115.97,2108.89 3116.07,2109.24C3116.44,2110.53 3116.77,2111.84 3117.05,2113.17C3117.33,2114.49 3117.57,2115.84 3117.76,2117.2C3117.89,2118.15 3118,2119.11 3118.09,2120.08C3118.1,2120.23 3118.11,2120.38 3118.13,2120.53L3118.16,2120.9C3118.18,2121.2 3118.2,2121.5 3118.22,2121.81L3118.23,2122.02L3118.25,2122.4C3118.26,2122.62 3118.27,2122.85 3118.28,2123.08C3118.31,2123.86 3118.33,2124.64 3118.33,2125.43L3118.33,2376.42L3059.45,2376.48L3000.58,2376.42L3000.58,2242.98C3000.58,2212.37 2977.18,2187.18 2947.31,2184.34L2787.37,2184.34C2757.5,2187.18 2734.1,2212.37 2734.1,2242.98L2734.1,2376.42L2675.23,2376.48L2616.35,2376.42L2616.35,1874.44L2734.1,1874.44L2734.1,2066.52L2829.56,2066.52C2859.43,2063.67 2882.82,2038.48 2882.82,2007.87L2882.82,1874.44L2941.7,1874.38L3000.58,1874.44L3000.58,2066.52L3059.8,2066.52Z" style="stroke:black;stroke-width:29.17px;stroke-linecap:round;stroke-linejoin:round;"/>
        </g>
        <g transform="matrix(0.199144,0,0,0.199144,-375.696,-59.0998)">
            <path d="M3101.07,917.531L3101.07,1301.69C3101.07,1334.2 3074.67,1360.6 3042.16,1360.6L2673.37,1360.6C2640.85,1360.6 2614.45,1334.2 2614.45,1301.69L2614.45,917.531C2614.45,885.017 2640.85,858.62 2673.37,858.62L3042.16,858.62C3074.67,858.62 3101.07,885.017 3101.07,917.531ZM2983.32,1035.08L2983.32,1184.13C2983.32,1216.52 2957.13,1242.84 2924.79,1243.04L2924.41,1243.05L2791.12,1243.05L2790.74,1243.04C2758.4,1242.84 2732.21,1216.52 2732.21,1184.13L2732.21,1035.08C2732.21,1002.7 2758.4,976.379 2790.74,976.174L2791.12,976.173L2924.41,976.173L2924.79,976.174C2957.13,976.379 2983.32,1002.7 2983.32,1035.08Z" style="stroke:black;stroke-width:29.17px;stroke-linecap:round;stroke-linejoin:round;"/>
        </g>
        <g transform="matrix(0.199144,0,0,0.199144,-374.252,-439.865)">
            <path d="M4756.37,2962.71L4756.37,2946.91C4756.17,2914.57 4729.85,2888.38 4697.46,2888.38L4387.31,2888.38L4387.25,2829.51L4387.31,2770.63L4815.01,2770.63C4847.53,2770.63 4873.93,2797.03 4873.93,2829.54L4873.93,3213.7C4873.93,3246.21 4847.53,3272.61 4815.01,3272.61L4446.22,3272.61C4413.71,3272.61 4387.31,3246.21 4387.31,3213.7L4387.31,3021.62C4387.31,2989.11 4413.71,2962.71 4446.22,2962.71L4756.37,2962.71ZM4756.17,3080.53L4505.06,3080.53L4505.06,3154.86L4756.17,3154.86L4756.17,3080.53Z" style="stroke:black;stroke-width:29.17px;stroke-linecap:round;stroke-linejoin:round;"/>
        </g>
        <g transform="matrix(0.199144,0,0,0.199144,-492.418,-303.094)">
            <path d="M4756.17,2083.83C4788.69,2083.83 4815.08,2110.23 4815.08,2142.74L4815.08,2275.91C4847.57,2275.95 4873.93,2302.33 4873.93,2334.82L4873.93,2526.9C4873.93,2559.41 4847.53,2585.81 4815.01,2585.81L4446.16,2585.81C4413.65,2585.81 4387.25,2559.41 4387.25,2526.9L4387.25,2142.74C4387.25,2110.23 4413.65,2083.83 4446.16,2083.83L4756.17,2083.83ZM4505,2393.73L4756.17,2393.73L4756.17,2468.06L4505,2468.06L4505,2393.73ZM4505,2201.66L4505,2275.91L4697.33,2275.91L4697.33,2201.66L4505,2201.66Z" style="stroke:black;stroke-width:29.17px;stroke-linecap:round;stroke-linejoin:round;"/>
        </g>
        <g transform="matrix(0.199144,0,0,0.199144,-13.9401,-444.897)">
            <path d="M1567.87,3180.12L1760.07,3180.12L1760.07,3105.8L1626.96,3105.8L1626.96,2987.97L1818.91,2987.97C1851.43,2987.97 1877.82,3014.37 1877.82,3046.89L1877.82,3238.96C1877.82,3271.48 1851.43,3297.87 1818.91,3297.87L1450.12,3297.87C1417.61,3297.87 1391.21,3271.48 1391.21,3238.96L1391.21,2854.81C1391.21,2822.29 1417.61,2795.9 1450.12,2795.9L1877.82,2795.9L1877.88,2854.77L1877.82,2913.65L1567.67,2913.65C1535.29,2913.65 1508.97,2939.84 1508.76,2972.18L1508.76,3051.47L1508.96,3051.47L1508.96,3121.21C1508.96,3153.72 1535.36,3180.12 1567.87,3180.12Z" style="stroke:black;stroke-width:29.17px;stroke-linecap:round;stroke-linejoin:round;"/>
        </g>
    </g>
</svg>
